<?xml version="1.0" standalone="no"?>
<!DOCTYPE svg PUBLIC "-//W3C//DTD SVG 20010904//EN"
 "http://www.w3.org/TR/2001/REC-SVG-20010904/DTD/svg10.dtd">
<svg version="1.0" xmlns="http://www.w3.org/2000/svg"
 width="150.000000pt" height="150.000000pt" viewBox="0 0 150.000000 150.000000"
 preserveAspectRatio="xMidYMid meet">
<metadata>
Created by potrace 1.11, written by Peter Selinger 2001-2013
</metadata>
<g transform="translate(0.000000,150.000000) scale(0.100000,-0.100000)"
fill="#000000" stroke="none">
<path d="M498 1053 l-67 -96 52 -76 c28 -42 54 -78 58 -81 3 -3 25 -34 50 -69
67 -97 71 -102 115 -164 l42 -58 71 100 c70 99 71 101 55 126 -9 14 -20 22
-25 19 -5 -3 -27 -32 -49 -64 -22 -32 -44 -61 -49 -64 -8 -5 -121 150 -121
166 0 4 21 36 46 72 28 41 42 71 38 78 -10 16 -134 190 -143 200 -3 4 -36 -36
-73 -89z m111 -70 c17 -25 31 -51 31 -57 0 -6 -13 -26 -28 -45 l-28 -33 -37
51 c-20 28 -37 54 -37 57 0 12 55 82 62 78 3 -2 20 -25 37 -51z"/>
<path d="M853 1045 c-40 -58 -73 -109 -73 -114 0 -5 48 -77 106 -160 l107
-152 -57 -82 c-31 -45 -63 -91 -72 -102 -12 -16 -28 -19 -115 -21 -91 -1 -102
1 -115 20 -9 12 -37 51 -64 89 l-48 67 -21 -25 -20 -26 67 -95 67 -94 134 3
134 2 43 60 c24 33 68 96 99 140 30 44 71 102 89 128 l34 49 107 -151 c58 -82
107 -154 108 -158 3 -10 -124 -13 -144 -3 -8 5 -29 28 -45 52 -16 23 -34 49
-41 58 -7 8 -21 26 -31 39 l-19 25 -16 -30 c-15 -29 -15 -30 45 -114 34 -47
66 -88 72 -93 10 -6 306 -9 306 -2 0 9 -333 470 -340 470 -8 0 -60 -66 -93
-117 -10 -16 -21 -28 -25 -28 -15 0 -83 110 -76 122 4 7 29 43 56 79 26 37 48
70 48 74 0 7 -129 196 -133 194 -1 0 -35 -47 -74 -104z m106 -46 l30 -42 -37
-53 c-20 -30 -39 -54 -42 -54 -3 0 -18 19 -32 41 l-27 42 37 53 c20 29 38 53
39 54 1 0 15 -19 32 -41z"/>
<path d="M244 693 c-54 -76 -128 -181 -166 -233 -37 -52 -68 -98 -68 -102 0
-5 67 -8 149 -8 l150 0 28 37 c15 21 32 42 36 48 5 5 51 70 102 144 93 132 94
133 77 159 l-16 25 -38 -44 c-25 -28 -41 -40 -46 -33 -41 65 -98 144 -104 144
-4 0 -51 -62 -104 -137z m141 -17 c21 -30 35 -61 31 -68 -3 -7 -35 -53 -70
-103 l-64 -90 -76 -1 c-42 0 -76 2 -76 5 0 5 76 117 95 138 5 7 35 48 65 92
30 44 56 80 56 81 1 0 18 -25 39 -54z"/>
</g>
</svg>
