<?xml version="1.0" standalone="no"?>
<!DOCTYPE svg PUBLIC "-//W3C//DTD SVG 20010904//EN"
 "http://www.w3.org/TR/2001/REC-SVG-20010904/DTD/svg10.dtd">
<svg version="1.0" xmlns="http://www.w3.org/2000/svg"
 width="150.000000pt" height="150.000000pt" viewBox="0 0 150.000000 150.000000"
 preserveAspectRatio="xMidYMid meet">
<metadata>
Created by potrace 1.11, written by Peter Selinger 2001-2013
</metadata>
<g transform="translate(0.000000,150.000000) scale(0.100000,-0.100000)"
fill="#000000" stroke="none">
<path d="M445 1190 c-4 -7 -15 -40 -63 -190 -71 -223 -116 -366 -118 -375 -1
-5 -25 -80 -52 -165 -27 -85 -48 -158 -46 -161 4 -7 1164 -10 1175 -3 6 3 -20
92 -92 309 -16 50 -31 97 -33 105 -4 16 -30 99 -106 335 l-48 150 -306 1
c-169 1 -309 -2 -311 -6z"/>
</g>
</svg>
