<svg xmlns="http://www.w3.org/2000/svg" xmlns:xlink="http://www.w3.org/1999/xlink" version="1.1" id="Capa_1" x="0px" y="0px" style="enable-background:new 0 0 124 124;" xml:space="preserve" class="hovered-paths">
  <defs>
    <!-- Facebook SVG -->
    <symbol id="icon-facebook" viewBox="0 0 512 512">
      <title>Facebook</title>
      <path d="m437 0h-362c-41.351562 0-75 33.648438-75 75v362c0 41.351562 33.648438 75 75 75h151v-181h-60v-90h60v-61c0-49.628906 40.371094-90 90-90h91v90h-91v61h91l-15 90h-76v181h121c41.351562 0 75-33.648438 75-75v-362c0-41.351562-33.648438-75-75-75zm0 0"/>
    </symbol>
    <!-- Linkedin SVG -->
    <symbol id="icon-linkedin" viewBox="0 0 512 512">
      <title>Linkedin</title>
      <path d="m437 0h-362c-41.351562 0-75 33.648438-75 75v362c0 41.351562 33.648438 75 75 75h362c41.351562 0 75-33.648438 75-75v-362c0-41.351562-33.648438-75-75-75zm-256 406h-60v-210h60zm0-240h-60v-60h60zm210 240h-60v-120c0-16.539062-13.460938-30-30-30s-30 13.460938-30 30v120h-60v-210h60v11.308594c15.71875-4.886719 25.929688-11.308594 45-11.308594 40.691406.042969 75 36.546875 75 79.6875zm0 0"/>
    </symbol>
    <!-- Twitter SVG -->
    <symbol id="icon-twitter" viewBox="0 -47 512.00203 512">
      <title>Twitter</title>
      <path d="m191.011719 419.042969c-22.140625 0-44.929688-1.792969-67.855469-5.386719-40.378906-6.335938-81.253906-27.457031-92.820312-33.78125l-30.335938-16.585938 32.84375-10.800781c35.902344-11.804687 57.742188-19.128906 84.777344-30.597656-27.070313-13.109375-47.933594-36.691406-57.976563-67.175781l-7.640625-23.195313 6.265625.957031c-5.941406-5.988281-10.632812-12.066406-14.269531-17.59375-12.933594-19.644531-19.78125-43.648437-18.324219-64.21875l1.4375-20.246093 12.121094 4.695312c-5.113281-9.65625-8.808594-19.96875-10.980469-30.777343-5.292968-26.359376-.863281-54.363282 12.476563-78.851563l10.558593-19.382813 14.121094 16.960938c44.660156 53.648438 101.226563 85.472656 168.363282 94.789062-2.742188-18.902343-.6875-37.144531 6.113281-53.496093 7.917969-19.039063 22.003906-35.183594 40.722656-46.691407 20.789063-12.777343 46-18.96875 70.988281-17.433593 26.511719 1.628906 50.582032 11.5625 69.699219 28.746093 9.335937-2.425781 16.214844-5.015624 25.511719-8.515624 5.59375-2.105469 11.9375-4.496094 19.875-7.230469l29.25-10.078125-19.074219 54.476562c1.257813-.105468 2.554687-.195312 3.910156-.253906l31.234375-1.414062-18.460937 25.230468c-1.058594 1.445313-1.328125 1.855469-1.703125 2.421875-1.488282 2.242188-3.339844 5.03125-28.679688 38.867188-6.34375 8.472656-9.511718 19.507812-8.921875 31.078125 2.246094 43.96875-3.148437 83.75-16.042969 118.234375-12.195312 32.625-31.09375 60.617187-56.164062 83.199219-31.023438 27.9375-70.582031 47.066406-117.582031 56.847656-23.054688 4.796875-47.8125 7.203125-73.4375 7.203125zm0 0"/>
    </symbol>
    <!-- Github SVG -->
    <symbol id="icon-github" viewBox="0 0 512 512">
      <title>Github</title>
       <path d="m256 0c-140.609375 0-256 115.390625-256 256 0 119.988281 84.195312 228.984375 196 256v-84.695312c-11.078125 2.425781-21.273438 2.496093-32.550781-.828126-15.128907-4.464843-27.421875-14.542968-36.546875-29.910156-5.816406-9.8125-16.125-20.453125-26.878906-19.671875l-2.636719-29.882812c23.253906-1.992188 43.371093 14.167969 55.3125 34.230469 5.304687 8.921874 11.410156 14.152343 19.246093 16.464843 7.574219 2.230469 15.707032 1.160157 25.183594-2.1875 2.378906-18.972656 11.070313-26.074219 17.636719-36.074219v-.015624c-66.679687-9.945313-93.253906-45.320313-103.800781-73.242188-13.976563-37.074219-6.476563-83.390625 18.238281-112.660156.480469-.570313 1.347656-2.0625 1.011719-3.105469-11.332032-34.230469 2.476562-62.546875 2.984375-65.550781 13.078125 3.867187 15.203125-3.890625 56.808593 21.386718l7.191407 4.320313c3.007812 1.792969 2.0625.769531 5.070312.542969 17.371094-4.71875 35.683594-7.324219 53.726563-7.558594 18.179687.234375 36.375 2.839844 54.464844 7.75l2.328124.234375c-.203124-.03125.632813-.148437 2.035157-.984375 51.972656-31.480469 50.105469-21.191406 64.042969-25.722656.503906 3.007812 14.128906 31.785156 2.917968 65.582031-1.511718 4.65625 45.058594 47.300781 19.246094 115.753906-10.546875 27.933594-37.117188 63.308594-103.796875 73.253907v.015624c8.546875 13.027344 18.816406 19.957032 18.761719 46.832032v105.722656c111.808594-27.015625 196-136.011719 196-256 .003906-140.609375-115.386719-256-255.996094-256zm0 0"/>
     </symbol>
     <!-- Udemy SVG -->
     <symbol id="icon-udemy" viewBox="0 0 260.2 213.4">
       <title>Udemy</title>
       <path d="M88.5.9c11.6 3.6 15.2 12.9 15.2 23.5-.1 8.4-1.1 16.8-3.1 25-4.3 18.7-9.6 37.2-14 55.8-3.6 15.3-6.9 30.8-7 46.6.1 4.3.8 8.6 2 12.7 2.3 8.2 9.2 8.8 14.4 3.8 3.3-3.2 6.3-6.6 9-10.3 13-17.3 24.5-35.7 34.3-55 9.5-18.5 31.2-60.3 32.5-62.8 6.8-12.5 25.6-10.4 31.3 1.8 3.2 6.6 5 13.9 5.3 21.2.5 15.8 2 59.9 2.7 66.2 1.3 12.2 9.1 16.1 19.5 9.3 6.3-4.1 12-9.3 17.7-14.2 5.3-4.7 8.1-4.2 10.7 2.4 2.3 5.8 1.3 11.6-.6 17.1-6.4 18.6-20.3 28.5-38.8 32.5-5.9 1.3-12 1.4-18 .4-13.3-2.2-21.8-9.9-26.9-21.8-4.9-11.5-6.4-44.2-7.5-48.4-1.8 3.8-23.1 47.7-34.3 64.4-7 10.7-15.5 20.4-25.3 28.7-9.7 8.1-20.7 13.1-33.6 13.4-15.6.4-26.9-6.7-34.7-19.9-5-8.5-7.1-18-7.8-27.8-1-13.7 1.2-27.1 4.2-40.5 1-4.3 1.7-8.7 2.8-14.2-4.3 2.2-7.1 4.2-10.3 5.3-3.8 1.3-7.9 2.6-11.9 2.5C2.1 118.2 0 102.5 0 99.9c4.8-3.7 9.9-7.1 14.3-11.1 21-19 36.8-41.8 48.2-67.6C66.3 12.7 71 5.4 79.4.9c2.8-1.2 5.3-1.3 9.1 0z"/>
     </symbol>
     <!-- Burger SVG -->
      <symbol id="icon-burger" viewBox="0 0 124 124">
        <title>Open Nav</title>
        <path d="M112,6H12C5.4,6,0,11.4,0,18s5.4,12,12,12h100c6.6,0,12-5.4,12-12S118.6,6,112,6z"  class="active-path" />
        <path d="M112,50H12C5.4,50,0,55.4,0,62c0,6.6,5.4,12,12,12h100c6.6,0,12-5.4,12-12C124,55.4,118.6,50,112,50z"  class="active-path"/>
        <path d="M112,94H12c-6.6,0-12,5.4-12,12s5.4,12,12,12h100c6.6,0,12-5.4,12-12S118.6,94,112,94z"  class="active-path"/>
        </g></g>
      </symbol>
      <!-- Email SVG -->
      <symbol  viewBox="0 0 490.2 490.2" id="email">
        <path d="M420.95 61.8C376.25 20.6 320.65 0 254.25 0c-69.8 0-129.3 23.4-178.4 70.3s-73.7 105.2-73.7 175c0 66.9 23.4 124.4 70.1 172.6 46.9 48.2 109.9 72.3 189.2 72.3 47.8 0 94.7-9.8 140.7-29.5 15-6.4 22.3-23.6 16.2-38.7-6.3-15.6-24.1-22.8-39.6-16.2-40 17.2-79.2 25.8-117.4 25.8-60.8 0-107.9-18.5-141.3-55.6-33.3-37-50-80.5-50-130.4 0-54.2 17.9-99.4 53.6-135.7 35.6-36.2 79.5-54.4 131.5-54.4 47.9 0 88.4 14.9 121.4 44.7s49.5 67.3 49.5 112.5c0 30.9-7.6 56.7-22.7 77.2-15.1 20.6-30.8 30.8-47.1 30.8-8.8 0-13.2-4.7-13.2-14.2 0-7.7.6-16.7 1.7-27.1l18.6-152.1h-64l-4.1 14.9c-16.3-13.3-34.2-20-53.6-20-30.8 0-57.2 12.3-79.1 36.8-22 24.5-32.9 56.1-32.9 94.7 0 37.7 9.7 68.2 29.2 91.3 19.5 23.2 42.9 34.7 70.3 34.7 24.5 0 45.4-10.3 62.8-30.8 13.1 19.7 32.4 29.5 57.9 29.5 37.5 0 69.9-16.3 97.2-49 27.3-32.6 41-72 41-118.1 0-58.4-22.3-108.3-67.1-149.5zm-147.4 230.1c-11.3 15.2-24.8 22.9-40.5 22.9-10.7 0-19.3-5.6-25.8-16.8-6.6-11.2-9.9-25.1-9.9-41.8 0-20.6 4.6-37.2 13.8-49.8s20.6-19 34.2-19c11.8 0 22.3 4.7 31.5 14.2s13.8 22.1 13.8 37.9c-.1 19.7-5.8 37.1-17.1 52.4z"></path>
      </symbol>
      <!-- Website SVG -->
      <symbol viewBox="0 0 447.632 447" xmlns="http://www.w3.org/2000/svg" id="icon-global">
       <path d="M231.816 447.05c34.23-4.863 64.239-40.59 83.121-93.35a406.317 406.317 0 0 0-83.12-9.786zm54.688-8.39c2.023-.586 4.039-1.176 6.039-1.824 1.687-.543 3.352-1.129 5.016-1.711a203.39 203.39 0 0 0 5.882-2.121c1.664-.633 3.313-1.305 4.965-1.977 1.906-.8 3.809-1.597 5.692-2.398a240.401 240.401 0 0 0 10.422-4.922 275.492 275.492 0 0 0 4.8-2.504 227.92 227.92 0 0 0 5.344-2.95 203.403 203.403 0 0 0 4.703-2.753 1085.85 1085.85 0 0 0 5.176-3.2 191.535 191.535 0 0 0 4.578-2.991 221.095 221.095 0 0 0 5.008-3.504 417.693 417.693 0 0 0 4.422-3.2 365.942 365.942 0 0 0 4.847-3.793c1.426-1.136 2.848-2.265 4.25-3.433 1.598-1.328 3.13-2.703 4.68-4.078 1.36-1.207 2.727-2.403 4.055-3.64 1.527-1.427 3.015-2.903 4.504-4.368 1.289-1.273 2.593-2.527 3.855-3.832.235-.242.457-.504.7-.754a268.883 268.883 0 0 0-54.817-21.094 198.517 198.517 0 0 1-51.129 83.024c.649-.168 1.297-.305 1.945-.473 1.711-.48 3.391-1.008 5.063-1.504zm161.129-206.976H351.71a414.882 414.882 0 0 1-16.152 110.68 278.228 278.228 0 0 1 60.714 24.16 223.51 223.51 0 0 0 51.36-134.84zm-215.817-16h103.895a400.208 400.208 0 0 0-15.75-106.743 421.384 421.384 0 0 1-88.145 10.512zm0-215.368v103.137a406.589 406.589 0 0 0 83.121-9.785C296.055 40.906 266.048 5.18 231.817.316zm0 327.598a421.648 421.648 0 0 1 88.145 10.516 400.236 400.236 0 0 0 15.75-106.746H231.816zm164.457-247.07a278.228 278.228 0 0 1-60.714 24.16 414.882 414.882 0 0 1 16.152 110.68h95.922a223.577 223.577 0 0 0-51.36-134.84zm-10.808-12.137c-.235-.238-.457-.496-.688-.742-1.265-1.305-2.578-2.563-3.867-3.832-1.484-1.465-2.965-2.945-4.496-4.367-1.324-1.235-2.695-2.403-4.055-3.633-1.55-1.375-3.101-2.762-4.695-4.09-1.383-1.168-2.8-2.285-4.207-3.406a171.24 171.24 0 0 0-4.89-3.825 220.477 220.477 0 0 0-4.383-3.199 192.844 192.844 0 0 0-5.055-3.547 200.251 200.251 0 0 0-4.535-2.957 190.441 190.441 0 0 0-5.219-3.257 223.26 223.26 0 0 0-4.664-2.727 220.848 220.848 0 0 0-5.39-2.984c-1.602-.801-3.2-1.672-4.801-2.473-1.84-.93-3.696-1.824-5.598-2.703a174.071 174.071 0 0 0-4.875-2.227c-1.895-.84-3.809-1.597-5.719-2.398a225.094 225.094 0 0 0-4.953-1.969 191.214 191.214 0 0 0-5.879-2.117 210.272 210.272 0 0 0-5.016-1.715c-2-.648-4-1.238-6.054-1.832-1.664-.488-3.336-.984-5.02-1.43-.644-.175-1.3-.312-1.949-.48a198.532 198.532 0 0 1 51.129 83.023 268.485 268.485 0 0 0 54.879-21.113zM0 215.684h95.922a415.035 415.035 0 0 1 16.148-110.68 277.885 277.885 0 0 1-60.71-24.16A223.519 223.519 0 0 0 0 215.684zM215.816 447.05V343.915a406.589 406.589 0 0 0-83.12 9.785c18.878 52.762 48.89 88.488 83.12 93.352zm0-215.366H111.922a400.079 400.079 0 0 0 15.75 106.746 421.097 421.097 0 0 1 88.144-10.516zm0-231.368c-34.23 4.864-64.242 40.59-83.12 93.352a406.045 406.045 0 0 0 83.12 9.785zm0 119.137a421.384 421.384 0 0 1-88.144-10.512 400.05 400.05 0 0 0-15.75 106.743h103.894zM168.113 6.79c-.648.167-1.297.304-1.945.472-1.695.453-3.367.957-5.055 1.445-2.008.586-4 1.176-6.015 1.816-1.7.551-3.371 1.137-5.043 1.72-1.957.69-3.918 1.378-5.856 2.112-1.672.641-3.32 1.305-4.976 1.985-1.903.8-3.809 1.601-5.688 2.398a232.86 232.86 0 0 0-4.91 2.242 223.908 223.908 0 0 0-5.512 2.68 228.526 228.526 0 0 0-10.137 5.457 149.244 149.244 0 0 0-4.718 2.75c-1.738 1.047-3.457 2.13-5.168 3.2-1.54.984-3.067 1.976-4.578 3a221.095 221.095 0 0 0-5.008 3.503 403.614 403.614 0 0 0-4.426 3.203c-1.637 1.23-3.2 2.512-4.848 3.79-1.421 1.136-2.855 2.265-4.246 3.44-1.601 1.321-3.12 2.688-4.664 4.056-1.367 1.218-2.746 2.402-4.082 3.664-1.52 1.418-3 2.89-4.484 4.351-1.29 1.274-2.602 2.531-3.867 3.84-.23.242-.453.508-.696.754a268.581 268.581 0 0 0 54.817 21.098 198.45 198.45 0 0 1 51.105-82.977zM66.719 383.234c1.488 1.465 2.969 2.946 4.496 4.371 1.328 1.23 2.695 2.399 4.058 3.63 1.551 1.378 3.102 2.761 4.696 4.09 1.383 1.16 2.793 2.28 4.207 3.405 1.601 1.297 3.199 2.586 4.894 3.833 1.442 1.082 2.907 2.128 4.371 3.203a226.476 226.476 0 0 0 5.063 3.55 214.813 214.813 0 0 0 4.535 2.961c1.73 1.11 3.457 2.2 5.219 3.254 1.543.93 3.101 1.84 4.664 2.73a208.275 208.275 0 0 0 5.39 2.981c1.598.801 3.2 1.672 4.801 2.473 1.84.93 3.696 1.824 5.598 2.707a215.13 215.13 0 0 0 4.875 2.223c1.894.84 3.805 1.597 5.719 2.398 1.648.672 3.289 1.336 4.953 1.969 1.941.746 3.91 1.441 5.879 2.12 1.664.583 3.328 1.169 5.015 1.712 2 .648 4 1.242 6.055 1.832 1.664.488 3.336.984 5.016 1.433.648.176 1.304.313 1.953.48a198.57 198.57 0 0 1-51.13-83.027 268.607 268.607 0 0 0-54.816 21.106c.235.238.458.496.692.742 1.2 1.297 2.492 2.555 3.797 3.824zM51.36 366.523a278.275 278.275 0 0 1 60.71-24.16 415.035 415.035 0 0 1-16.148-110.68H0a223.552 223.552 0 0 0 51.36 134.84zm0 0"></path>
    </symbol>
    </defs>
  </svg>
  
