<svg width="0" height="0" class="hidden">
  <symbol xmlns="http://www.w3.org/2000/svg" viewBox="0 0 124 124" id="burger">
    <path d="M112 6H12C5.4 6 0 11.4 0 18s5.4 12 12 12h100c6.6 0 12-5.4 12-12s-5.4-12-12-12zm0 44H12C5.4 50 0 55.4 0 62s5.4 12 12 12h100c6.6 0 12-5.4 12-12s-5.4-12-12-12zm0 44H12c-6.6 0-12 5.4-12 12s5.4 12 12 12h100c6.6 0 12-5.4 12-12s-5.4-12-12-12z" data-original="#000000"
      data-old_color="#000000"></path>
  </symbol>
  <symbol xmlns="http://www.w3.org/2000/svg" viewBox="0 0 348.333 348.334" id="close">
    <path d="M336.559 68.611L231.016 174.165l105.543 105.549c15.699 15.705 15.699 41.145 0 56.85-7.844 7.844-18.128 11.769-28.407 11.769-10.296 0-20.581-3.919-28.419-11.769L174.167 231.003 68.609 336.563c-7.843 7.844-18.128 11.769-28.416 11.769-10.285 0-20.563-3.919-28.413-11.769-15.699-15.698-15.699-41.139 0-56.85l105.54-105.549L11.774 68.611c-15.699-15.699-15.699-41.145 0-56.844 15.696-15.687 41.127-15.687 56.829 0l105.563 105.554L279.721 11.767c15.705-15.687 41.139-15.687 56.832 0 15.705 15.699 15.705 41.145.006 56.844z"></path>
  </symbol>
  <symbol xmlns="http://www.w3.org/2000/svg" viewBox="0 0 490.2 490.2" id="email">
    <path d="M420.95 61.8C376.25 20.6 320.65 0 254.25 0c-69.8 0-129.3 23.4-178.4 70.3s-73.7 105.2-73.7 175c0 66.9 23.4 124.4 70.1 172.6 46.9 48.2 109.9 72.3 189.2 72.3 47.8 0 94.7-9.8 140.7-29.5 15-6.4 22.3-23.6 16.2-38.7-6.3-15.6-24.1-22.8-39.6-16.2-40 17.2-79.2 25.8-117.4 25.8-60.8 0-107.9-18.5-141.3-55.6-33.3-37-50-80.5-50-130.4 0-54.2 17.9-99.4 53.6-135.7 35.6-36.2 79.5-54.4 131.5-54.4 47.9 0 88.4 14.9 121.4 44.7s49.5 67.3 49.5 112.5c0 30.9-7.6 56.7-22.7 77.2-15.1 20.6-30.8 30.8-47.1 30.8-8.8 0-13.2-4.7-13.2-14.2 0-7.7.6-16.7 1.7-27.1l18.6-152.1h-64l-4.1 14.9c-16.3-13.3-34.2-20-53.6-20-30.8 0-57.2 12.3-79.1 36.8-22 24.5-32.9 56.1-32.9 94.7 0 37.7 9.7 68.2 29.2 91.3 19.5 23.2 42.9 34.7 70.3 34.7 24.5 0 45.4-10.3 62.8-30.8 13.1 19.7 32.4 29.5 57.9 29.5 37.5 0 69.9-16.3 97.2-49 27.3-32.6 41-72 41-118.1 0-58.4-22.3-108.3-67.1-149.5zm-147.4 230.1c-11.3 15.2-24.8 22.9-40.5 22.9-10.7 0-19.3-5.6-25.8-16.8-6.6-11.2-9.9-25.1-9.9-41.8 0-20.6 4.6-37.2 13.8-49.8s20.6-19 34.2-19c11.8 0 22.3 4.7 31.5 14.2s13.8 22.1 13.8 37.9c-.1 19.7-5.8 37.1-17.1 52.4z"></path>
  </symbol>
  <symbol viewBox="0 0 512 512" xmlns="http://www.w3.org/2000/svg" id="facebook">
    <path d="M437 0H75C33.648 0 0 33.648 0 75v362c0 41.352 33.648 75 75 75h151V331h-60v-90h60v-61c0-49.629 40.371-90 90-90h91v90h-91v61h91l-15 90h-76v181h121c41.352 0 75-33.648 75-75V75c0-41.352-33.648-75-75-75zm0 0"></path>
  </symbol>
  <symbol viewBox="0 0 512 512" xmlns="http://www.w3.org/2000/svg" id="github">
    <path d="M256 0C115.39 0 0 115.39 0 256c0 119.988 84.195 228.984 196 256v-84.695c-11.078 2.425-21.273 2.496-32.55-.828-15.13-4.465-27.423-14.543-36.548-29.91-5.816-9.813-16.125-20.454-26.879-19.672l-2.636-29.883c23.254-1.992 43.37 14.168 55.312 34.23 5.305 8.922 11.41 14.153 19.246 16.465 7.575 2.23 15.707 1.16 25.184-2.187 2.379-18.973 11.07-26.075 17.637-36.075v-.015c-66.68-9.946-93.254-45.32-103.801-73.242-13.977-37.075-6.477-83.391 18.238-112.66.48-.571 1.348-2.063 1.012-3.106-11.332-34.23 2.476-62.547 2.984-65.55 13.078 3.866 15.203-3.892 56.809 21.386l7.191 4.32c3.008 1.793 2.063.77 5.07.543 17.372-4.719 35.684-7.324 53.727-7.558 18.18.234 36.375 2.84 54.465 7.75l2.328.234c-.203-.031.633-.149 2.035-.984 51.973-31.481 50.106-21.192 64.043-25.723.504 3.008 14.13 31.785 2.918 65.582-1.512 4.656 45.059 47.3 19.246 115.754-10.547 27.933-37.117 63.308-103.797 73.254v.015c8.547 13.028 18.817 19.957 18.762 46.832V512c111.809-27.016 196-136.012 196-256C512 115.39 396.61 0 256 0zm0 0"></path>
  </symbol>
  <symbol xmlns="http://www.w3.org/2000/svg" viewBox="0 0 27.02 27.02" id="home-page">
    <path d="M3.674 24.876s-.024.604.566.604l6.811-.008.01-5.581s-.096-.92.797-.92h2.826c1.056 0 .991.92.991.92l-.012 5.563h6.667c.749 0 .715-.752.715-.752V14.413l-9.396-8.358-9.975 8.358v10.463z"></path>
    <path d="M0 13.635s.847 1.561 2.694 0l11.038-9.338 10.349 9.28c2.138 1.542 2.939 0 2.939 0L13.732 1.54 0 13.635zm23.83-9.36h-2.662l.011 3.228 2.651 2.249z"></path>
  </symbol>
  <symbol viewBox="0 0 512 512" xmlns="http://www.w3.org/2000/svg" id="linkedin">
    <path d="M437 0H75C33.648 0 0 33.648 0 75v362c0 41.352 33.648 75 75 75h362c41.352 0 75-33.648 75-75V75c0-41.352-33.648-75-75-75zM181 406h-60V196h60zm0-240h-60v-60h60zm210 240h-60V286c0-16.54-13.46-30-30-30s-30 13.46-30 30v120h-60V196h60v11.309C286.719 202.422 296.93 196 316 196c40.691.043 75 36.547 75 79.688zm0 0"></path>
  </symbol>
  <symbol xmlns="http://www.w3.org/2000/svg" viewBox="0 0 35.69 89.226" id="scroll">
    <g transform="translate(-943.545 -867.862)">
      <g transform="translate(943.545 867.862)" fill="none" stroke="#00c2ff" stroke-width="5">
        <rect width="35.69" height="89.226" rx="17.845" stroke="none"></rect>
        <rect x="2.5" y="2.5" width="30.69" height="84.226" rx="15.345"></rect>
      </g>
      <rect width="10.197" height="25.493" rx="5.099" transform="translate(956.3 916.298)" fill="#00c2ff"></rect>
    </g>
  </symbol>
  <symbol viewBox="0 -47 512.002 512" xmlns="http://www.w3.org/2000/svg" id="twitter">
    <path d="M191.012 419.043c-22.14 0-44.93-1.793-67.856-5.387-40.379-6.336-81.254-27.457-92.82-33.781L0 363.289l32.844-10.8c35.902-11.805 57.742-19.13 84.777-30.598-27.07-13.11-47.933-36.692-57.976-67.176l-7.641-23.195 6.266.957A113.939 113.939 0 0 1 44 214.883c-12.934-19.645-19.781-43.649-18.324-64.219l1.437-20.246 12.121 4.695a113.316 113.316 0 0 1-10.98-30.777c-5.293-26.36-.863-54.363 12.476-78.852L51.29 6.102l14.12 16.96c44.66 53.649 101.227 85.473 168.363 94.79-2.742-18.903-.687-37.145 6.114-53.497 7.918-19.039 22.004-35.183 40.722-46.69 20.79-12.778 46-18.97 70.989-17.435 26.511 1.63 50.582 11.563 69.699 28.747 9.336-2.426 16.215-5.016 25.512-8.516 5.593-2.106 11.937-4.496 19.875-7.23l29.25-10.079-19.075 54.477a96.355 96.355 0 0 1 3.91-.254l31.235-1.414-18.461 25.23c-1.059 1.446-1.328 1.856-1.703 2.422-1.488 2.242-3.34 5.032-28.68 38.867-6.344 8.473-9.512 19.508-8.922 31.079 2.246 43.968-3.148 83.75-16.043 118.234-12.195 32.625-31.093 60.617-56.164 83.2-31.023 27.937-70.582 47.066-117.582 56.847-23.054 4.797-47.812 7.203-73.437 7.203zm0 0"></path>
  </symbol>
  <symbol xmlns="http://www.w3.org/2000/svg" viewBox="0 0 260.2 213.4" id="udemy">
    <title>udemy</title>
    <path d="M88.5.9c11.6 3.6 15.2 12.9 15.2 23.5-.1 8.4-1.1 16.8-3.1 25-4.3 18.7-9.6 37.2-14 55.8-3.6 15.3-6.9 30.8-7 46.6.1 4.3.8 8.6 2 12.7 2.3 8.2 9.2 8.8 14.4 3.8 3.3-3.2 6.3-6.6 9-10.3 13-17.3 24.5-35.7 34.3-55 9.5-18.5 31.2-60.3 32.5-62.8 6.8-12.5 25.6-10.4 31.3 1.8 3.2 6.6 5 13.9 5.3 21.2.5 15.8 2 59.9 2.7 66.2 1.3 12.2 9.1 16.1 19.5 9.3 6.3-4.1 12-9.3 17.7-14.2 5.3-4.7 8.1-4.2 10.7 2.4 2.3 5.8 1.3 11.6-.6 17.1-6.4 18.6-20.3 28.5-38.8 32.5-5.9 1.3-12 1.4-18 .4-13.3-2.2-21.8-9.9-26.9-21.8-4.9-11.5-6.4-44.2-7.5-48.4-1.8 3.8-23.1 47.7-34.3 64.4-7 10.7-15.5 20.4-25.3 28.7-9.7 8.1-20.7 13.1-33.6 13.4-15.6.4-26.9-6.7-34.7-19.9-5-8.5-7.1-18-7.8-27.8-1-13.7 1.2-27.1 4.2-40.5 1-4.3 1.7-8.7 2.8-14.2-4.3 2.2-7.1 4.2-10.3 5.3-3.8 1.3-7.9 2.6-11.9 2.5C2.1 118.2 0 102.5 0 99.9c4.8-3.7 9.9-7.1 14.3-11.1 21-19 36.8-41.8 48.2-67.6C66.3 12.7 71 5.4 79.4.9c2.8-1.2 5.3-1.3 9.1 0z"
      fill="#eb524f"></path>
  </symbol>
  <symbol xmlns="http://www.w3.org/2000/svg" viewBox="0 0 512 512" id="web">
    <path d="M469.333 0H42.667C19.114.028.028 19.114 0 42.667v426.667C.028 492.886 19.114 511.972 42.667 512h426.667c23.552-.028 42.638-19.114 42.667-42.667V42.667C511.972 19.114 492.886.028 469.333 0zm25.6 469.333c0 14.138-11.461 25.6-25.6 25.6H42.667c-14.138 0-25.6-11.461-25.6-25.6v-384h477.867v384zm0-401.066H17.067v-25.6c0-14.138 11.462-25.6 25.6-25.6h426.667c14.138 0 25.6 11.462 25.6 25.6v25.6z"
      data-original="#000000" data-old_color="#000000"></path>
    <path d="M59.733 34.133H51.2c-4.713 0-8.533 3.82-8.533 8.533S46.487 51.2 51.2 51.2h8.533c4.713 0 8.533-3.82 8.533-8.533s-3.82-8.534-8.533-8.534zm37.376.683a7.817 7.817 0 0 0-6.485 0 9.857 9.857 0 0 0-2.816 1.792 8.653 8.653 0 0 0 0 12.117 9.857 9.857 0 0 0 2.816 1.792c2.066.91 4.419.91 6.485 0a9.857 9.857 0 0 0 2.816-1.792 8.653 8.653 0 0 0 0-12.117 9.857 9.857 0 0 0-2.816-1.792zm34.163-.08a8.533 8.533 0 0 0-9.331 1.872 9.857 9.857 0 0 0-1.792 2.816 8.036 8.036 0 0 0 0 6.485 9.857 9.857 0 0 0 1.792 2.816 8.653 8.653 0 0 0 12.117 0 9.857 9.857 0 0 0 1.792-2.816 7.163 7.163 0 0 0 .683-3.243 8.531 8.531 0 0 0-5.261-7.93zm329.528-.603H170.667c-4.713 0-8.533 3.82-8.533 8.533s3.82 8.533 8.533 8.533H460.8c4.713 0 8.533-3.82 8.533-8.533s-3.82-8.533-8.533-8.533zM131.012 406.357c.388.357.811.675 1.263.947a169.899 169.899 0 0 0 247.586-.077 7.982 7.982 0 0 0 1.195-.853c.28-.393.526-.81.734-1.246 59.882-64.957 59.882-164.999 0-229.956l-.034-.017a8.328 8.328 0 0 0-.734-1.246 7.644 7.644 0 0 0-1.271-.956 169.896 169.896 0 0 0-247.466 0 7.59 7.59 0 0 0-1.271.956c-.28.393-.526.81-.734 1.246-59.882 64.957-59.882 164.999 0 229.956.207.436.452.853.732 1.246zm171.537 30.097a156.811 156.811 0 0 0 29.056-53.76v-.026a156.234 156.234 0 0 1 30.148 18.551 153.588 153.588 0 0 1-59.204 35.235zm70.981-47.633a173.058 173.058 0 0 0-37.086-22.741 304.21 304.21 0 0 0 8.934-67.413h63.787a152.749 152.749 0 0 1-35.635 90.154zM409.165 281.6h-63.787a304.32 304.32 0 0 0-8.934-67.413 173.076 173.076 0 0 0 37.086-22.724 152.745 152.745 0 0 1 35.635 90.137zm-47.411-102.579a156.184 156.184 0 0 1-30.148 18.551 156.817 156.817 0 0 0-29.056-53.786 153.627 153.627 0 0 1 59.204 35.235zm-97.221-41.293c20.915 5.478 39.415 30.626 51.072 66.227a181.188 181.188 0 0 1-51.072 9.719v-75.946zm0 93.022a197.344 197.344 0 0 0 55.774-10.24 288.912 288.912 0 0 1 8.013 61.09h-63.787v-50.85zm0 67.917h63.787a288.892 288.892 0 0 1-8.013 61.073 197.33 197.33 0 0 0-55.774-10.223v-50.85zm0 67.925a181.2 181.2 0 0 1 51.072 9.728c-11.657 35.601-30.157 60.749-51.072 66.227v-75.955zm-114.287 34.603a156.23 156.23 0 0 1 30.148-18.5v-.026a156.811 156.811 0 0 0 29.056 53.76 153.613 153.613 0 0 1-59.204-35.234zm97.221 41.344c-20.915-5.478-39.415-30.626-51.072-66.227a181.188 181.188 0 0 1 51.072-9.719v75.946zm0-93.022a197.35 197.35 0 0 0-55.774 10.24 288.92 288.92 0 0 1-8.013-61.09h63.787v50.85zm0-67.917H183.68a288.892 288.892 0 0 1 8.013-61.073 197.33 197.33 0 0 0 55.774 10.223v50.85zm0-143.881v75.955a181.2 181.2 0 0 1-51.072-9.728c11.656-35.6 30.156-60.748 51.072-66.227zm-38.016 6.042a156.81 156.81 0 0 0-29.056 53.811v-.026a156.189 156.189 0 0 1-30.148-18.552 153.608 153.608 0 0 1 59.204-35.233zm-70.981 47.684a173.058 173.058 0 0 0 37.086 22.741 304.21 304.21 0 0 0-8.934 67.413h-63.787a152.749 152.749 0 0 1 35.635-90.154zm28.152 107.222a304.32 304.32 0 0 0 8.934 67.413 173.076 173.076 0 0 0-37.086 22.724 152.748 152.748 0 0 1-35.635-90.138h63.787z"
      data-original="#000000" data-old_color="#000000"></path>
  </symbol>
</svg>